HIERARCHY
ROOT Hips
{
	OFFSET 0.000000 0.000000 0.000000
	CHANNELS 6 Xposition Yposition Zposition Zrotation Yrotation Xrotation 
	JOINT LeftUpLeg_virtual
	{
		OFFSET 0.000000 0.000000 0.000000
		CHANNELS 3 Zrotation Yrotation Xrotation
		JOINT LeftUpLeg
		{
			OFFSET 10.205400 -3.823500 0.155100
			CHANNELS 3 Zrotation Yrotation Xrotation
			JOINT LeftLeg
			{
				OFFSET 0.708757 -12.982077 0.567790
				CHANNELS 3 Zrotation Yrotation Xrotation
				JOINT LeftFoot
				{
					OFFSET -0.708756 -10.717838 -2.184338
					CHANNELS 3 Zrotation Yrotation Xrotation
					JOINT LeftToeBase
					{
						OFFSET 0.108149 -7.191104 7.560241
						CHANNELS 3 Zrotation Yrotation Xrotation
						End Site
						{
							OFFSET 0.000000 0.000000 0.000000
						}
					}
				}
			}
		}
	}
	JOINT RightUpLeg_virtual
	{
		OFFSET 0.000000 0.000000 0.000000
		CHANNELS 3 Zrotation Yrotation Xrotation
		JOINT RightUpLeg
		{
			OFFSET -10.205400 -3.823500 0.005500
			CHANNELS 3 Zrotation Yrotation Xrotation
			JOINT RightLeg
			{
				OFFSET -0.708756 -12.982134 0.610632
				CHANNELS 3 Zrotation Yrotation Xrotation
				JOINT RightFoot
				{
					OFFSET 0.708754 -10.717769 -1.945823
					CHANNELS 3 Zrotation Yrotation Xrotation
					JOINT RightToeBase
					{
						OFFSET -0.108140 -7.191069 7.372968
						CHANNELS 3 Zrotation Yrotation Xrotation
						End Site
						{
							OFFSET 0.000000 0.000000 0.000000
						}
					}
				}
			}
		}
	}
	JOINT Spine_virtual
	{
		OFFSET 0.000000 0.000000 0.000000
		CHANNELS 3 Zrotation Yrotation Xrotation
		JOINT Spine
		{
			OFFSET 0.000000 6.876099 0.125700
			CHANNELS 3 Zrotation Yrotation Xrotation
			JOINT Spine1
			{
				OFFSET 0.000000 8.022060 0.146608
				CHANNELS 3 Zrotation Yrotation Xrotation
				JOINT Spine2
				{
					OFFSET 0.000000 9.168068 0.167552
					CHANNELS 3 Zrotation Yrotation Xrotation
					JOINT Neck_virtual
					{
						OFFSET 0.000000 0.000000 0.000000
						CHANNELS 3 Zrotation Yrotation Xrotation
						JOINT Neck
						{
							OFFSET 0.000000 10.314075 0.188496
							CHANNELS 3 Zrotation Yrotation Xrotation
							JOINT Head
							{
								OFFSET 0.000000 7.643700 -2.377400
								CHANNELS 3 Zrotation Yrotation Xrotation
								End Site
								{
									OFFSET 0.000000 0.000000 0.000000
								}
							}
						}
					}
					JOINT LeftShoulder_virtual
					{
						OFFSET 0.000000 0.000000 0.000000
						CHANNELS 3 Zrotation Yrotation Xrotation
						JOINT LeftShoulder
						{
							OFFSET 4.392200 8.824978 0.174984
							CHANNELS 3 Zrotation Yrotation Xrotation
							JOINT LeftArm
							{
								OFFSET 8.771219 -2.981674 -0.026999
								CHANNELS 3 Zrotation Yrotation Xrotation
								JOINT LeftForeArm
								{
									OFFSET 8.512804 0.000000 -0.000000
									CHANNELS 3 Zrotation Yrotation Xrotation
									JOINT LeftHand
									{
										OFFSET 18.484802 0.000000 -0.000000
										CHANNELS 3 Zrotation Yrotation Xrotation
										End Site
										{
											OFFSET 0.000000 0.000000 0.000000
										}
									}
								}
							}
						}
					}
					JOINT RightShoulder_virtual
					{
						OFFSET 0.000000 0.000000 0.000000
						CHANNELS 3 Zrotation Yrotation Xrotation
						JOINT RightShoulder
						{
							OFFSET -4.392200 8.824993 0.141379
							CHANNELS 3 Zrotation Yrotation Xrotation
							JOINT RightArm
							{
								OFFSET -8.771282 -2.981682 -0.094208
								CHANNELS 3 Zrotation Yrotation Xrotation
								JOINT RightForeArm
								{
									OFFSET -8.494598 0.000000 0.000000
									CHANNELS 3 Zrotation Yrotation Xrotation
									JOINT RightHand
									{
										OFFSET -18.483803 0.000000 0.000001
										CHANNELS 3 Zrotation Yrotation Xrotation
										End Site
										{
											OFFSET 0.000000 0.000000 0.000000
										}
									}
								}
							}
						}
					}
				}
			}
		}
	}
}
MOTION
Frames: 9
Frame Time: 0.033333
1.788093 36.375187 9.915708 -179.945691 -0.444226 179.669847 -3.807696 -0.032886 13.278769 2.264466 -5.948576 -12.941679 7.356658 10.689391 16.904602 0.705072 1.754010 7.442536 0.000000 0.000000 0.000000 0.547543 0.527372 12.766815 -1.058786 -0.240889 -3.236704 -7.578150 -1.596478 7.764371 5.478910 3.965288 11.865272 0.000000 0.000000 0.000000 -0.612989 1.953418 2.703703 -1.758195 0.929804 -10.836225 -0.272587 -3.386887 3.628449 0.017731 -0.010031 -0.056862 -0.736111 -1.318020 4.231162 0.238753 0.571160 1.261290 0.000000 0.000000 0.000000 1.066739 -0.514517 1.531786 3.825924 1.347752 -3.757648 -7.425678 22.563436 -30.305860 1.870370 -41.990012 -4.739178 0.000000 0.000000 0.000000 -3.261494 0.285887 0.704136 8.109828 -8.505026 -3.901740 25.468898 -31.436980 -41.876993 -3.301451 39.744372 -6.235550 0.000000 0.000000 0.000000 
1.785411 36.377907 9.925172 179.958587 -0.489782 179.544882 -3.875171 -0.074939 13.093849 2.180541 -6.072755 -13.126429 7.107824 10.728206 16.664482 0.544357 1.590386 7.158306 0.000000 0.000000 0.000000 0.494042 0.443424 12.745487 -1.098094 -0.407959 -3.255999 -7.528169 -1.801331 7.661147 5.168387 3.745924 11.903133 0.000000 0.000000 0.000000 -0.658200 1.932214 2.797853 -1.794637 0.909934 -10.775855 -0.296398 -3.391661 3.619038 0.046329 -0.020802 -0.137388 -0.757962 -1.276974 4.206541 0.212809 0.543886 1.215703 0.000000 0.000000 0.000000 1.060626 -0.521090 1.535341 3.819134 1.316770 -3.457888 -7.501161 22.567623 -30.322372 1.997960 -41.948300 -4.875879 0.000000 0.000000 0.000000 -3.243080 0.338837 0.760994 8.122686 -8.481758 -3.878967 25.489247 -31.516952 -41.860590 -3.360150 39.727310 -6.301862 0.000000 0.000000 0.000000 
1.786435 36.377697 9.932217 179.945049 -0.537348 179.581533 -3.896788 -0.108266 13.062103 2.196988 -6.110499 -13.137676 7.117232 10.693350 16.653417 0.552971 1.597238 7.152126 0.000000 0.000000 0.000000 0.489787 0.423588 12.724961 -1.102112 -0.488814 -3.268296 -7.452903 -1.863792 7.604272 5.071332 3.720039 11.957903 0.000000 0.000000 0.000000 -0.664465 1.886644 2.742269 -1.803487 0.899603 -10.755209 -0.316522 -3.367569 3.655534 -0.025533 -0.008483 -0.076185 -0.679366 -1.351759 4.149634 0.250163 0.577267 1.219266 0.000000 0.000000 0.000000 1.140521 -0.502737 1.503638 3.816585 1.330597 -3.733268 -7.427507 22.522542 -30.220380 1.868886 -41.931371 -4.716168 0.000000 0.000000 0.000000 -3.158472 0.301525 0.662165 8.119919 -8.470533 -3.952216 25.453298 -31.449504 -41.843644 -3.269739 39.742053 -6.171264 0.000000 0.000000 0.000000 
1.788545 36.377480 9.938884 179.920119 -0.527255 179.567313 -3.909616 -0.131392 13.052509 2.199720 -6.122059 -13.132872 7.119174 10.710842 16.652469 0.561440 1.607404 7.182962 0.000000 0.000000 0.000000 0.472421 0.403254 12.714597 -1.103217 -0.457314 -3.273836 -7.455735 -1.856761 7.635732 5.120297 3.736207 11.918098 0.000000 0.000000 0.000000 -0.683198 1.915046 2.750821 -1.819961 0.898342 -10.757682 -0.313135 -3.383712 3.644748 0.017002 -0.019882 -0.082770 -0.704669 -1.273555 4.116127 0.249151 0.583297 1.182179 0.000000 0.000000 0.000000 1.098799 -0.496528 1.470749 3.792544 1.317918 -3.702747 -7.456739 22.514146 -30.224516 1.885488 -41.914726 -4.729489 0.000000 0.000000 0.000000 -3.190387 0.329428 0.648934 8.131639 -8.448716 -3.891464 25.538465 -31.436390 -41.887822 -3.257665 39.682866 -6.166572 0.000000 0.000000 0.000000 
1.789842 36.377728 9.944159 179.930815 -0.521158 179.549868 -3.912740 -0.116257 13.067707 2.197896 -6.139651 -13.122678 7.121310 10.689007 16.647936 0.570078 1.612163 7.186520 0.000000 0.000000 0.000000 0.474988 0.421754 12.718848 -1.135276 -0.482807 -3.266447 -7.421649 -1.889488 7.654538 5.066677 3.716752 11.913347 0.000000 0.000000 0.000000 -0.677200 1.905233 2.787847 -1.822213 0.904472 -10.734233 -0.318137 -3.360849 3.617265 -0.023991 -0.005585 -0.036642 -0.684615 -1.323618 4.124377 0.240905 0.567446 1.224491 0.000000 0.000000 0.000000 1.127759 -0.506875 1.520713 3.776686 1.296700 -3.639130 -7.475037 22.500796 -30.134644 1.894938 -41.842261 -4.755312 0.000000 0.000000 0.000000 -3.174816 0.306471 0.615515 8.146528 -8.429325 -3.875910 25.467337 -31.423419 -41.647731 -3.395319 39.669059 -6.255095 0.000000 0.000000 0.000000 
1.790323 36.377327 9.948986 -179.975840 -0.500115 179.567750 -3.815135 -0.111777 13.074330 2.190622 -6.134233 -13.141278 7.083815 10.734813 16.626444 0.588626 1.624940 7.168418 0.000000 0.000000 0.000000 0.535982 0.425451 12.705800 -1.083064 -0.445225 -3.280520 -7.506375 -1.839470 7.618032 5.205854 3.742288 11.969439 0.000000 0.000000 0.000000 -0.626138 1.911700 2.765140 -1.792451 0.906387 -10.740941 -0.290159 -3.377802 3.662868 0.020214 -0.018271 -0.112960 -0.752530 -1.243726 4.161780 0.231050 0.558589 1.259372 0.000000 0.000000 0.000000 1.060222 -0.490941 1.510780 3.778204 1.312295 -3.606600 -7.486669 22.450953 -30.094169 1.864176 -41.793279 -4.714507 0.000000 0.000000 0.000000 -3.249045 0.331263 0.705795 8.142243 -8.407953 -3.901585 25.480642 -31.387281 -41.767560 -3.247566 39.672607 -6.136980 0.000000 0.000000 0.000000 
1.791428 36.376308 9.952990 -179.980962 -0.503815 179.559185 -3.815738 -0.137125 13.086235 2.195827 -6.147338 -13.151245 7.058489 10.752984 16.628162 0.604924 1.639378 7.185722 0.000000 0.000000 0.000000 0.526296 0.395827 12.707916 -1.090808 -0.442900 -3.290059 -7.492902 -1.885652 7.634458 5.226480 3.754709 11.955928 0.000000 0.000000 0.000000 -0.625434 1.908494 2.770960 -1.801139 0.919779 -10.739258 -0.289904 -3.363342 3.675924 0.014340 -0.013592 -0.078856 -0.738304 -1.287321 4.132804 0.225665 0.545858 1.300291 0.000000 0.000000 0.000000 1.083433 -0.475355 1.503633 3.769528 1.301886 -3.856334 -7.454123 22.397445 -29.960324 1.829279 -41.773837 -4.640503 0.000000 0.000000 0.000000 -3.216153 0.330396 0.675589 8.153781 -8.409004 -3.872148 25.469878 -31.389538 -41.657600 -3.305194 39.681603 -6.183572 0.000000 0.000000 0.000000 
1.789819 36.376007 9.954718 179.933274 -0.516254 179.521578 -3.898395 -0.162314 13.102826 2.188333 -6.151481 -13.139917 7.096183 10.704068 16.659260 0.612339 1.637343 7.219387 0.000000 0.000000 0.000000 0.473335 0.346563 12.722874 -1.145570 -0.466432 -3.283954 -7.383771 -1.888270 7.655963 5.126498 3.743552 11.904169 0.000000 0.000000 0.000000 -0.665322 1.879618 2.880967 -1.843672 0.904383 -10.775534 -0.314324 -3.367322 3.581799 -0.014041 -0.029802 -0.050326 -0.695452 -1.319705 4.259508 0.257951 0.572360 1.415692 0.000000 0.000000 0.000000 1.115797 -0.473963 1.491532 3.763205 1.324524 -3.642021 -7.531276 22.451146 -30.007743 1.881005 -41.809890 -4.725263 0.000000 0.000000 0.000000 -3.166973 0.320168 0.739109 8.146700 -8.386809 -3.935072 25.500221 -31.328534 -41.711921 -3.225071 39.693566 -6.102020 0.000000 0.000000 0.000000 
1.788540 36.375973 9.949745 -179.966332 -0.466957 179.531181 -3.796470 -0.149113 13.106487 2.182906 -6.124354 -13.146097 7.060383 10.750828 16.663151 0.608169 1.632519 7.208378 0.000000 0.000000 0.000000 0.590577 0.376960 12.700691 -1.194519 -0.485737 -3.283918 -7.304279 -1.894065 7.676461 5.019035 3.759845 11.887441 0.000000 0.000000 0.000000 -0.607506 1.898151 2.838564 -1.809099 0.946829 -10.759596 -0.285749 -3.328754 3.650561 0.012683 0.003783 -0.079580 -0.743103 -1.350845 4.185271 0.277735 0.585652 1.392460 0.000000 0.000000 0.000000 1.058611 -0.453381 1.530209 3.788089 1.339845 -3.856478 -7.595813 22.379084 -29.932939 1.854643 -41.776982 -4.683940 0.000000 0.000000 0.000000 -3.230257 0.314278 0.672310 8.152618 -8.408278 -3.843762 25.447263 -31.336580 -41.661261 -3.252789 39.742644 -6.117235 0.000000 0.000000 0.000000 
